<?xml version="1.0" encoding="utf-8"?>
<!-- Generator: Adobe Illustrator 19.2.1, SVG Export Plug-In . SVG Version: 6.00 Build 0)  -->
<svg version="1.1" id="Layer_1" xmlns="http://www.w3.org/2000/svg" xmlns:xlink="http://www.w3.org/1999/xlink" x="0px" y="0px"
	 viewBox="0 0 107.3 131.1" style="enable-background:new 0 0 107.3 131.1;" xml:space="preserve">
<style type="text/css">
	.st0{clip-path:url(#SVGID_2_);fill:#87B2D8;}
	.st1{clip-path:url(#SVGID_4_);fill:#FFFFFF;}
	.st2{clip-path:url(#SVGID_6_);fill:#002856;}
	.st3{fill:#002856;}
	.st4{clip-path:url(#SVGID_8_);}
	.st5{clip-path:url(#SVGID_10_);fill:#FFFFFF;}
	.st6{clip-path:url(#SVGID_12_);fill:#FFFFFF;}
	.st7{clip-path:url(#SVGID_14_);fill:#BC9905;}
	.st8{clip-path:url(#SVGID_16_);fill:#BC9905;}
	.st9{fill:#FFFFFF;}
	.st10{clip-path:url(#SVGID_18_);fill:#FFFFFF;}
	.st11{clip-path:url(#SVGID_20_);fill:#FFFFFF;}
	.st12{clip-path:url(#SVGID_22_);fill:#FFFFFF;}
	.st13{clip-path:url(#SVGID_24_);fill:#FFFFFF;}
	.st14{clip-path:url(#SVGID_26_);fill:#FFFFFF;}
	.st15{clip-path:url(#SVGID_28_);fill:#FFFFFF;}
	.st16{clip-path:url(#SVGID_30_);fill:#FFFFFF;}
	.st17{clip-path:url(#SVGID_32_);fill:#FFFFFF;}
	.st18{clip-path:url(#SVGID_34_);fill:#FFFFFF;}
	.st19{clip-path:url(#SVGID_36_);fill:#FFFFFF;}
	.st20{clip-path:url(#SVGID_38_);fill:#BC9905;}
	.st21{clip-path:url(#SVGID_40_);fill:#BC9905;}
	.st22{clip-path:url(#SVGID_42_);fill:#FFFFFF;}
	.st23{clip-path:url(#SVGID_44_);fill:#FFFFFF;}
	.st24{clip-path:url(#SVGID_46_);fill:#FFFFFF;}
	.st25{clip-path:url(#SVGID_48_);}
	.st26{clip-path:url(#SVGID_50_);}
	.st27{clip-path:url(#SVGID_52_);}
	.st28{clip-path:url(#SVGID_54_);}
	.st29{clip-path:url(#SVGID_56_);}
	.st30{clip-path:url(#SVGID_58_);}
	.st31{clip-path:url(#SVGID_60_);}
	.st32{clip-path:url(#SVGID_62_);}
	.st33{clip-path:url(#SVGID_64_);}
	.st34{clip-path:url(#SVGID_66_);}
	.st35{clip-path:url(#SVGID_68_);fill:#FFFFFF;}
	.st36{clip-path:url(#SVGID_70_);fill:#FFFFFF;}
	.st37{clip-path:url(#SVGID_72_);fill:#FFFFFF;}
	.st38{clip-path:url(#SVGID_74_);fill:#FFFFFF;}
	.st39{clip-path:url(#SVGID_76_);fill:#9CB6D3;}
	.st40{clip-path:url(#SVGID_78_);fill:#9CB6D3;}
	.st41{clip-path:url(#SVGID_80_);fill:#9CB6D3;}
	.st42{clip-path:url(#SVGID_82_);fill:#9CB6D3;}
	.st43{fill:#9CB6D3;}
	.st44{clip-path:url(#SVGID_84_);fill:#9CB6D3;}
</style>
<g>
	<g>
		<g>
			<defs>
				<rect id="SVGID_1_" width="107.3" height="131.1"/>
			</defs>
			<clipPath id="SVGID_2_">
				<use xlink:href="#SVGID_1_"  style="overflow:visible;"/>
			</clipPath>
			<path class="st0" d="M106.5,1h-1.1H1.9H0.8v1.1v36.1v1c0,17.7-0.1,64.8,52.1,90.6l0.2,0.1l0.5,0.2l0.5-0.2l0.2-0.1
				c52.2-25.8,52.1-72.9,52.1-90.6c0-0.2,0-0.5,0-0.7l0-0.3v-36C106.5,2.1,106.5,1,106.5,1z M105.4,2.1v36.1c0,0.3,0,0.6,0,1
				c0,18.9-0.5,64.4-51.5,89.6l-0.2,0.1l-0.2-0.1C2.4,103.5,1.9,58,1.9,39.1v-1V2.1H105.4z"/>
		</g>
		<g>
			<defs>
				<rect id="SVGID_3_" width="107.3" height="131.1"/>
			</defs>
			<clipPath id="SVGID_4_">
				<use xlink:href="#SVGID_3_"  style="overflow:visible;"/>
			</clipPath>
			<path class="st1" d="M105.4,38.1c0,0.3,0,0.6,0,1c0,18.9-0.5,64.4-51.5,89.6l-0.2,0.1l-0.2-0.1C2.4,103.5,1.9,58,1.9,39.1v-1V2.1
				h103.5V38.1z"/>
		</g>
		<g>
			<defs>
				<rect id="SVGID_5_" width="107.3" height="131.1"/>
			</defs>
			<clipPath id="SVGID_6_">
				<use xlink:href="#SVGID_5_"  style="overflow:visible;"/>
			</clipPath>
			<path class="st2" d="M105.4,39c0,19.2-0.6,64.6-51.8,90C2.4,103.7,1.9,58.3,1.9,39.1L105.4,39z"/>
		</g>
	</g>
	<rect x="1.9" y="2" class="st3" width="103.5" height="35.8"/>
	<g>
		<g>
			<defs>
				<rect id="SVGID_7_" width="107.3" height="131.1"/>
			</defs>
			<clipPath id="SVGID_8_">
				<use xlink:href="#SVGID_7_"  style="overflow:visible;"/>
			</clipPath>
			<path class="st4" d="M52.1,6.3c0.9,0.3,1.8,2,1.8,2s0.5-2,3-2.2c2.6-0.2,6.4,1.6,9.4-0.8L68.2,8l1-0.6l1.3,1.2l-0.1,3.8
				c0.2,0.7,0.9,1.1,1.5,1.2c0,0,0.2-0.7-0.1-1.4c-0.6-1.5-0.5-2.6,0.4-3.5C72.4,9,73.5,9.3,74,9.2C73.7,10,73.5,11,73.7,12
				c0.3,1.2,0.1,2.6-0.6,3.5c-0.7,0.7-1.6,0.4-2.3,0l-0.5-0.2v9.9c0.2,0.4,0.4,0.9,0.8,1.2c0.9-0.5,0.2-1.8,0.4-2.7
				c0-0.5,0.4-1.1,0.7-1.5c0.5,0.2,1.7,0.4,1.8,0.5c-0.1,0.3-0.6,1.2-0.5,2c0.3,2.7-0.8,3.8-1.3,4.1c-0.8,0.2-1.5-0.3-2.1-0.6v5
				L56.3,33c-0.1,0.6-0.2,1.8-2.5,1.9c-2.2,0-2.5-1.4-2.7-1.8c-4.9,0-14.3-0.3-14.3-0.3v-4.4l0,0c-0.5,0.3-1,0.8-1.7,0.5
				c-0.7-0.3-1.2-1.3-1.3-2.5c-0.1-1.2,0.4-2.6-0.6-3.4c0.3-0.2,0.7-0.2,1.1-0.3c0.4,0,1-0.2,1-0.2c0.8,1,0.3,2.8,0.2,3.3
				c0,0.5,0.2,0.8,0.2,0.8c0.4-0.3,0.9-0.5,1.2-0.9l0.1-9.8l-0.1-0.1c-0.6,0.2-1.3,0.7-1.9,0.4c-0.7-0.3-1.3-1-1.5-2.5
				c-0.2-1.6,0.4-3.5-0.1-4.4l1.9-0.7c0.9,1.4,0.3,3.2,0.1,4.7c0,0.2,0.1,0.4,0.3,0.5c0.5-0.2,1-0.5,1.4-0.8l0-4.6l1.2-1.1l1.3,0.1
				c0,0,1.2-1.6,1.3-2.1C44.3,7,48.5,5.3,52.1,6.3"/>
		</g>
		<g>
			<defs>
				<rect id="SVGID_9_" width="107.3" height="131.1"/>
			</defs>
			<clipPath id="SVGID_10_">
				<use xlink:href="#SVGID_9_"  style="overflow:visible;"/>
			</clipPath>
			<path class="st5" d="M52.3,7.2c0.8,0.4,1.1,1.2,1.3,2.1v21.5C51.9,28,50.2,29,44.5,29c-1.2,0-2.8-0.7-3.4-1.3
				C41,20.5,41.2,5.9,41.2,5.9C44.4,8,48.8,5.7,52.3,7.2"/>
		</g>
		<g>
			<defs>
				<rect id="SVGID_11_" width="107.3" height="131.1"/>
			</defs>
			<clipPath id="SVGID_12_">
				<use xlink:href="#SVGID_11_"  style="overflow:visible;"/>
			</clipPath>
			<path class="st6" d="M66.2,28.3c0,0-0.4,0.9-3.3,0.9c-2.7,0.1-6.9-1.5-8.7,1.6V8.9c0.1-0.8,0.9-1.3,1.6-1.6
				c2.6-0.9,3.8,0.2,6.3,0c2.5-0.1,3.4-0.6,4.2-1.2L66.2,28.3z"/>
		</g>
		<g>
			<defs>
				<rect id="SVGID_13_" width="107.3" height="131.1"/>
			</defs>
			<clipPath id="SVGID_14_">
				<use xlink:href="#SVGID_13_"  style="overflow:visible;"/>
			</clipPath>
			<path class="st7" d="M67.8,30.9c-0.6-0.7-1.1-1.6-1.3-2.5l0-22l1.3,1.9L67.8,30.9z"/>
		</g>
		<g>
			<defs>
				<rect id="SVGID_15_" width="107.3" height="131.1"/>
			</defs>
			<clipPath id="SVGID_16_">
				<use xlink:href="#SVGID_15_"  style="overflow:visible;"/>
			</clipPath>
			<path class="st8" d="M40.6,23.1v5.2c-0.1,0.7-0.6,1.2-1,1.7l0-11.2c0-3.4,0.1-7.7,0.2-11.1l1-1.3L40.6,23.1z"/>
		</g>
	</g>
	<polygon class="st9" points="39.3,7.8 39.2,30.9 51.1,31.3 51.5,31.7 38.4,31.5 38.6,7.7 	"/>
	<polygon class="st9" points="37.5,8.6 37.5,32 38,31.6 38.1,12 38.1,8 	"/>
	<g>
		<g>
			<defs>
				<rect id="SVGID_17_" width="107.3" height="131.1"/>
			</defs>
			<clipPath id="SVGID_18_">
				<use xlink:href="#SVGID_17_"  style="overflow:visible;"/>
			</clipPath>
			<path class="st10" d="M68.9,8.1l-0.2,23.9c-4.1,0-12.7-0.1-12.7-0.1l0.2-0.4l12,0l0-23L68.9,8.1z"/>
		</g>
		<g>
			<defs>
				<rect id="SVGID_19_" width="107.3" height="131.1"/>
			</defs>
			<clipPath id="SVGID_20_">
				<use xlink:href="#SVGID_19_"  style="overflow:visible;"/>
			</clipPath>
			<path class="st11" d="M70.1,8.8c0,0-0.3,21.9-0.4,23.9L69,32l0.3-23.9L70.1,8.8z"/>
		</g>
		<g>
			<defs>
				<rect id="SVGID_21_" width="107.3" height="131.1"/>
			</defs>
			<clipPath id="SVGID_22_">
				<use xlink:href="#SVGID_21_"  style="overflow:visible;"/>
			</clipPath>
			<path class="st12" d="M35.1,10.5c0.1,1.1-0.6,2.3,0,3.3c0,0-0.1,0.3-0.6,0.2c-0.5,0-0.7-0.6-0.7-0.9c-0.1-1.3,0.4-1.9,0.2-3.4
				l1-0.3L35.1,10.5z"/>
		</g>
		<g>
			<defs>
				<rect id="SVGID_23_" width="107.3" height="131.1"/>
			</defs>
			<clipPath id="SVGID_24_">
				<use xlink:href="#SVGID_23_"  style="overflow:visible;"/>
			</clipPath>
			<path class="st13" d="M73.4,9.7c-0.6,1.2,0.3,2.5,0,3.8c-0.2,0.2-0.7,0.2-1,0.2c0.3-0.7-0.1-1.3-0.4-2.6
				c-0.2-1.1,0.4-1.6,0.4-1.6S72.8,9.7,73.4,9.7"/>
		</g>
		<g>
			<defs>
				<rect id="SVGID_25_" width="107.3" height="131.1"/>
			</defs>
			<clipPath id="SVGID_26_">
				<use xlink:href="#SVGID_25_"  style="overflow:visible;"/>
			</clipPath>
			<path class="st14" d="M73.2,14.1c0,0.2-0.2,1.1-0.8,1.2c-0.6,0.2-1.7-0.4-2-0.7c0-0.5,0-1-0.1-1.5C71,14,72.1,14.5,73.2,14.1"/>
		</g>
		<g>
			<defs>
				<rect id="SVGID_27_" width="107.3" height="131.1"/>
			</defs>
			<clipPath id="SVGID_28_">
				<use xlink:href="#SVGID_27_"  style="overflow:visible;"/>
			</clipPath>
			<path class="st15" d="M37,14.9c-0.7,0.3-1.5,0.9-2.3,0.4c-0.3-0.2-0.4-0.5-0.5-0.8c1,0.1,2.1-0.4,2.8-1L37,14.9z"/>
		</g>
		<g>
			<defs>
				<rect id="SVGID_29_" width="107.3" height="131.1"/>
			</defs>
			<clipPath id="SVGID_30_">
				<use xlink:href="#SVGID_29_"  style="overflow:visible;"/>
			</clipPath>
			<path class="st16" d="M73.5,23.2c-0.7,1.8,0,2.9-0.3,3.4c-0.5,0.8-1.6,0.1-1.6,0.1s0.4,0,0.6-0.7c0.2-0.6-0.5-2.3,0.3-3.2
				L73.5,23.2z"/>
		</g>
		<g>
			<defs>
				<rect id="SVGID_31_" width="107.3" height="131.1"/>
			</defs>
			<clipPath id="SVGID_32_">
				<use xlink:href="#SVGID_31_"  style="overflow:visible;"/>
			</clipPath>
			<path class="st17" d="M35.3,23.6c0.2,0.8,0,1.6-0.1,2.4l0.1,0.7c-0.2,0.2-0.6,0.1-0.8,0c-0.6-1.1,0.4-2.3-0.4-3.4l0.9-0.2
				C35,23.1,35.2,23.5,35.3,23.6"/>
		</g>
		<g>
			<defs>
				<rect id="SVGID_33_" width="107.3" height="131.1"/>
			</defs>
			<clipPath id="SVGID_34_">
				<use xlink:href="#SVGID_33_"  style="overflow:visible;"/>
			</clipPath>
			<path class="st18" d="M73,27.3c-0.1,0.4-0.4,0.9-1,1c-0.6,0-1.4-0.2-1.8-0.8l0-1.2C70.9,27,71.9,27.8,73,27.3"/>
		</g>
		<g>
			<defs>
				<rect id="SVGID_35_" width="107.3" height="131.1"/>
			</defs>
			<clipPath id="SVGID_36_">
				<use xlink:href="#SVGID_35_"  style="overflow:visible;"/>
			</clipPath>
			<path class="st19" d="M36.9,27.6c-0.5,0.4-1.4,0.9-1.8,0.7c-0.3-0.2-0.6-0.6-0.6-1c0.9,0.2,1.8-0.5,2.5-1L36.9,27.6z"/>
		</g>
		<g>
			<defs>
				<rect id="SVGID_37_" width="107.3" height="131.1"/>
			</defs>
			<clipPath id="SVGID_38_">
				<use xlink:href="#SVGID_37_"  style="overflow:visible;"/>
			</clipPath>
			<path class="st20" d="M53.6,31.5c0.2,0.6,0.1,0.5,0,0.8c-1,0.2-1.6-0.7-2.3-1.4c0,0-7.9-0.4-11.6-0.4c0.5-0.7,1.2-1.3,1.3-2.1
				C43.9,31.1,51.8,27.5,53.6,31.5"/>
		</g>
		<g>
			<defs>
				<rect id="SVGID_39_" width="107.3" height="131.1"/>
			</defs>
			<clipPath id="SVGID_40_">
				<use xlink:href="#SVGID_39_"  style="overflow:visible;"/>
			</clipPath>
			<path class="st21" d="M67.4,30.9c-3.8,0.2-7.7,0-11.4,0.1c-0.4,0.7-1.1,1.5-1.9,1.3c1-3.5,4.3-2.6,8.8-2.6c2.5,0,3.3-1,3.3-1
				C66.4,29.5,67,30.4,67.4,30.9"/>
		</g>
		<g>
			<defs>
				<rect id="SVGID_41_" width="107.3" height="131.1"/>
			</defs>
			<clipPath id="SVGID_42_">
				<use xlink:href="#SVGID_41_"  style="overflow:visible;"/>
			</clipPath>
			<path class="st22" d="M51.8,32.1c0,0,0.1,0.1,0.1,0.2c-0.9,0.2-14.1,0.1-14.1,0.1l0.8-0.5L51.8,32.1z"/>
		</g>
		<g>
			<defs>
				<rect id="SVGID_43_" width="107.3" height="131.1"/>
			</defs>
			<clipPath id="SVGID_44_">
				<use xlink:href="#SVGID_43_"  style="overflow:visible;"/>
			</clipPath>
			<path class="st23" d="M68.8,32.2l0.6,0.6l-13.8-0.4l0.2-0.3C55.8,32.2,64.5,32.2,68.8,32.2"/>
		</g>
		<g>
			<defs>
				<rect id="SVGID_45_" width="107.3" height="131.1"/>
			</defs>
			<clipPath id="SVGID_46_">
				<use xlink:href="#SVGID_45_"  style="overflow:visible;"/>
			</clipPath>
			<path class="st24" d="M53.9,33.2c0.6,0,1.2-0.2,1.6-0.5c0.4,0.6-0.1,1.5-1.6,1.5c-1.6,0-2.3-1-1.8-1.7
				C52.6,33.1,53.3,33.2,53.9,33.2"/>
		</g>
		<g>
			<defs>
				<rect id="SVGID_47_" width="107.3" height="131.1"/>
			</defs>
			<clipPath id="SVGID_48_">
				<use xlink:href="#SVGID_47_"  style="overflow:visible;"/>
			</clipPath>
			<path class="st25" d="M49.1,22c0-1.7-0.9-1.8-2.2-1.9c-1-0.1-1.2-0.3-1.3-0.9h-0.1c-0.2,0.4-0.4,0.7-0.4,1.1
				c0,0.4,0.2,0.7,0.7,0.9c-0.7,0.8-0.6,2.1-0.7,3.5c0.6-0.1,1.3-0.1,1.8-0.1c0.6,0,1.2,0,1.8,0.1C48.7,23.7,49.1,22.9,49.1,22
				 M48.4,23.6c-0.4-0.1-0.8-0.1-1.3-0.1c-0.4,0-1,0.1-1.4,0.1c0-1,0.1-1.8,0.4-2.4c1.3,0.1,1.8,0.1,2,0.4
				C48.4,21.9,48.3,22.4,48.4,23.6"/>
		</g>
		<g>
			<defs>
				<rect id="SVGID_49_" width="107.3" height="131.1"/>
			</defs>
			<clipPath id="SVGID_50_">
				<use xlink:href="#SVGID_49_"  style="overflow:visible;"/>
			</clipPath>
			<path class="st26" d="M61.8,21.8c0-1.4-0.6-1.7-1.1-1.7c-0.4,0-1.7,0.1-2.2-0.3c-0.1-0.1-0.2-0.5-0.2-0.8h-0.1
				c-0.1,0.3-0.4,0.7-0.4,1.1c0,0.4,0.1,0.8,0.6,1c-0.6,1-0.4,2-0.6,3.5c0.6,0,1.4-0.1,2.1-0.1c0.6,0,1.1,0,1.7,0.1
				C61.5,23.6,61.8,23.5,61.8,21.8 M61.2,23.6c-0.4-0.1-0.9-0.1-1.4-0.1c-0.4,0-0.9,0.1-1.3,0.1c0-0.1-0.1-0.7-0.1-0.8
				c0-0.4,0.1-1,0.3-1.5c1.1,0,1.7,0,2,0.3C61.1,21.8,61.2,22.3,61.2,23.6"/>
		</g>
		<g>
			<defs>
				<rect id="SVGID_51_" width="107.3" height="131.1"/>
			</defs>
			<clipPath id="SVGID_52_">
				<use xlink:href="#SVGID_51_"  style="overflow:visible;"/>
			</clipPath>
			<path class="st27" d="M51,20.9c0-0.7-0.6-1-0.8-1.5v-0.6l-0.1-0.1c-0.2,0.3-0.6,0.8-0.6,1.1c0,0.3,0.1,0.6,0.3,0.8
				c0.2,0.3,0.3,0.5,0.4,0.6c0.1,0.1,0.1,0.4,0.1,0.6h0.1C50.7,21.6,51,21.2,51,20.9"/>
		</g>
		<g>
			<defs>
				<rect id="SVGID_53_" width="107.3" height="131.1"/>
			</defs>
			<clipPath id="SVGID_54_">
				<use xlink:href="#SVGID_53_"  style="overflow:visible;"/>
			</clipPath>
			<path class="st28" d="M63.8,20.6c0-0.7-0.8-0.6-0.9-1.2c-0.1-0.1,0-0.4,0.1-0.6h-0.1c-0.3,0.3-0.6,0.8-0.6,1.1
				c0,0.3,0.1,0.6,0.3,0.8c0.1,0.1,0.4,0.3,0.5,0.4c0.1,0.1,0.1,0.6,0.1,0.8l0.2,0.1C63.5,21.5,63.8,20.8,63.8,20.6"/>
		</g>
		<g>
			<defs>
				<rect id="SVGID_55_" width="107.3" height="131.1"/>
			</defs>
			<clipPath id="SVGID_56_">
				<use xlink:href="#SVGID_55_"  style="overflow:visible;"/>
			</clipPath>
			<path class="st29" d="M58.4,15.9c-0.6-0.7-0.1-2.4-0.6-3.4c-0.1-0.1-0.4-0.2-0.7-0.2h-1.3c-0.3,0-0.4-0.3-0.6-0.8h-0.1
				c-0.2,0.3-0.2,0.6-0.2,0.8c0,0.8,0.6,1.2,1,1.2c0.6,0,1.3-0.3,1.5,0.2c0.1,0.1,0.1,0.4,0.1,1.1c0,0.8-0.1,1.5-0.1,1.8h0.1
				C58,16.6,58.2,16.2,58.4,15.9"/>
		</g>
		<g>
			<defs>
				<rect id="SVGID_57_" width="107.3" height="131.1"/>
			</defs>
			<clipPath id="SVGID_58_">
				<use xlink:href="#SVGID_57_"  style="overflow:visible;"/>
			</clipPath>
			<path class="st30" d="M50.7,15.9c-0.6-0.6-0.1-3.2-0.7-3.6c-0.3-0.1-0.5-0.1-0.8-0.1c-0.4,0-0.7,0.1-1,0.1c-0.4,0-0.6-0.2-0.8-1
				h-0.1c-0.1,0.3-0.1,0.6-0.1,0.9c0,0.6,0.1,1.1,0.7,1.3c-0.1,0.4-0.1,0.7-0.1,1c0,0.3,0,0.7,0.1,1.1c-0.6,0.2-0.7,0.2-0.8,0.3
				c-0.1,0.1-0.1,0.4-0.3,0.9c1.5,0,1.9-0.2,1.9-0.7c0-0.4-0.5-1.2-0.5-2c0-0.3,0.1-0.5,0.2-0.7c0.4,0,0.9-0.2,1.3,0
				c0.3,0.1,0.3,0.8,0.3,1.5c0,0.8-0.1,1.5-0.1,1.8H50C50.3,16.6,50.6,16.2,50.7,15.9"/>
		</g>
		<g>
			<defs>
				<rect id="SVGID_59_" width="107.3" height="131.1"/>
			</defs>
			<clipPath id="SVGID_60_">
				<use xlink:href="#SVGID_59_"  style="overflow:visible;"/>
			</clipPath>
			<path class="st31" d="M60.5,15.9v-0.1c-0.1-0.1-0.1-0.1-0.2-0.2c-0.2-0.3-0.2-0.9-0.2-1.3c0-0.2,0.1-0.4,0.1-0.6
				c0.1-0.3,0.3-0.4,0.3-1c0-0.4-0.4-0.4-0.9-0.5c-0.3,0-0.6-0.1-0.6-0.3c-0.1-0.1-0.1-0.4-0.2-0.5h-0.1c-0.1,0.3-0.2,0.7-0.2,1
				c0,0.8,0.3,1.1,1.3,1.1c-0.1,0.8-0.1,1.4-0.1,2.2c0,0.3,0,0.7,0.1,1.1h0.1C60.1,16.6,60.3,16.4,60.5,15.9"/>
		</g>
		<g>
			<defs>
				<rect id="SVGID_61_" width="107.3" height="131.1"/>
			</defs>
			<clipPath id="SVGID_62_">
				<use xlink:href="#SVGID_61_"  style="overflow:visible;"/>
			</clipPath>
			<path class="st32" d="M46.8,13.8c0-0.8-0.6-0.9-1.1-1.2c-0.4-0.2-0.7-0.5-0.6-1.3h-0.2c-0.4,0.4-0.6,0.8-0.8,1.2
				c-0.4,0-1-0.4-0.8-1.2h-0.1c-0.4,0.3-0.5,0.7-0.5,1.1c0,0.4,0.3,0.9,0.8,1.1c-0.2,0.4-0.8,1-0.8,1.5c0,0.4,0.1,1,0.1,1.2
				c0,0.3,0,0.4-0.1,0.6c-0.1,0-0.1,0.1,0.1,0.1c0.3-0.3,0.7-0.7,0.7-1.5c0-0.3-0.1-0.7-0.1-1c0-0.4,0.5-1,0.8-1.5
				c0.8,0.4,2,0.6,2,1.6c0,0.3-0.2,0.8-0.4,1c-0.1,0.1-0.5,0.1-0.8,0.1h-1c-0.1,0.4-0.2,0.7-0.4,1.1h0.2c0.1,0,0.4-0.1,0.6-0.1
				c0.4,0,0.6,0.1,0.8,0.1c0.6,0,0.9-0.3,1.1-1.1C46.5,15.2,46.8,14.4,46.8,13.8"/>
		</g>
		<g>
			<defs>
				<rect id="SVGID_63_" width="107.3" height="131.1"/>
			</defs>
			<clipPath id="SVGID_64_">
				<use xlink:href="#SVGID_63_"  style="overflow:visible;"/>
			</clipPath>
			<path class="st33" d="M52.8,15.9v-0.1c-0.1,0-0.2-0.1-0.3-0.2c-0.1-0.2-0.1-0.8-0.1-1.3c0-0.1,0.1-0.4,0.1-0.6
				c0.1-0.2,0.3-0.4,0.3-1c0-0.3-0.5-0.4-1-0.4c-0.3-0.1-0.5-0.2-0.6-0.4c-0.1-0.1-0.1-0.3-0.2-0.5h-0.1c-0.1,0.4-0.1,0.7-0.1,1
				c0,0.8,0.2,1.1,1.3,1.1c-0.1,0.4-0.1,0.9-0.1,1.4c0,0.6-0.1,1.3-0.1,1.8H52C52.4,16.5,52.6,16.4,52.8,15.9"/>
		</g>
		<g>
			<defs>
				<rect id="SVGID_65_" width="107.3" height="131.1"/>
			</defs>
			<clipPath id="SVGID_66_">
				<use xlink:href="#SVGID_65_"  style="overflow:visible;"/>
			</clipPath>
			<path class="st34" d="M65.1,15.4c0-0.4-0.2-0.8-0.6-1.1c-0.1-0.1-0.3-0.3-0.3-0.3c0.3-0.3,0.8-0.7,0.8-1.2c0-0.2-0.1-0.4-0.2-0.6
				c-0.1-0.1-0.4-0.2-0.4-0.4c-0.1-0.2-0.1-0.3,0-0.5l-0.1-0.1c-0.3,0.3-0.6,0.6-0.6,1c0,0.8,1,0.7,0.3,1.7c-1-0.4-2.2-1-2.1-2.5
				h-0.1c-0.3,0.3-0.4,0.8-0.4,1.1c0,0.8,0.6,1.4,1.1,1.7c-0.3,0.1-0.4,0.2-0.5,0.3c-0.3,0.2-0.3,0.5-0.3,0.8c0,0.3,0,0.6,0.1,0.9
				l-0.4,0.3v0.2c0.7,0.1,1.6,0.3,1.6-0.7c0-0.3-0.5-0.7-0.5-0.9c0-0.4,0.3-0.6,0.3-0.8c0.8,0.4,1.8,0.8,1.8,1.7
				c0,0.2,0,0.4-0.1,0.7h0.2C64.9,16.3,65.1,15.7,65.1,15.4"/>
		</g>
	</g>
	<g>
		<g>
			<defs>
				<rect id="SVGID_67_" width="107.3" height="131.1"/>
			</defs>
			<clipPath id="SVGID_68_">
				<use xlink:href="#SVGID_67_"  style="overflow:visible;"/>
			</clipPath>
			<path class="st35" d="M76.1,94.6c2.5,2.5,6.6,2.5,9.1,0c2.5-2.5,2.5-6.6,0-9.1c-2.5-2.5-6.6-2.5-9.1,0
				C73.6,88,73.6,92.1,76.1,94.6"/>
		</g>
		<g>
			<defs>
				<rect id="SVGID_69_" width="107.3" height="131.1"/>
			</defs>
			<clipPath id="SVGID_70_">
				<use xlink:href="#SVGID_69_"  style="overflow:visible;"/>
			</clipPath>
			<path class="st36" d="M62,108.7c2.5,2.5,6.6,2.5,9.1,0c2.5-2.5,2.5-6.6,0-9.1c-2.5-2.5-6.6-2.5-9.1,0
				C59.5,102.1,59.5,106.2,62,108.7"/>
		</g>
		<g>
			<defs>
				<rect id="SVGID_71_" width="107.3" height="131.1"/>
			</defs>
			<clipPath id="SVGID_72_">
				<use xlink:href="#SVGID_71_"  style="overflow:visible;"/>
			</clipPath>
			<path class="st37" d="M36.2,99.6c-2.5,2.5-2.5,6.6,0,9.1c2.5,2.5,6.6,2.5,9.1,0s2.5-6.6,0-9.1C42.8,97.1,38.7,97.1,36.2,99.6"/>
		</g>
		<g>
			<defs>
				<rect id="SVGID_73_" width="107.3" height="131.1"/>
			</defs>
			<clipPath id="SVGID_74_">
				<use xlink:href="#SVGID_73_"  style="overflow:visible;"/>
			</clipPath>
			<path class="st38" d="M22.1,85.5c-2.5,2.5-2.5,6.6,0,9.1c2.5,2.5,6.6,2.5,9.1,0c2.5-2.5,2.5-6.6,0-9.1C28.7,83,24.6,83,22.1,85.5
				"/>
		</g>
	</g>
	<g>
		<g>
			<defs>
				<rect id="SVGID_75_" width="107.3" height="131.1"/>
			</defs>
			<clipPath id="SVGID_76_">
				<use xlink:href="#SVGID_75_"  style="overflow:visible;"/>
			</clipPath>
			<path class="st39" d="M36.2,54.7c2.5,2.5,6.6,2.5,9.1,0c2.5-2.5,2.5-6.6,0-9.1c-2.5-2.5-6.6-2.5-9.1,0
				C33.7,48.2,33.7,52.2,36.2,54.7"/>
		</g>
		<g>
			<defs>
				<rect id="SVGID_77_" width="107.3" height="131.1"/>
			</defs>
			<clipPath id="SVGID_78_">
				<use xlink:href="#SVGID_77_"  style="overflow:visible;"/>
			</clipPath>
			<path class="st40" d="M22.1,68.9c2.5,2.5,6.6,2.5,9.1,0c2.5-2.5,2.5-6.6,0-9.1c-2.5-2.5-6.6-2.5-9.1,0
				C19.6,62.3,19.6,66.3,22.1,68.9"/>
		</g>
		<g>
			<defs>
				<rect id="SVGID_79_" width="107.3" height="131.1"/>
			</defs>
			<clipPath id="SVGID_80_">
				<use xlink:href="#SVGID_79_"  style="overflow:visible;"/>
			</clipPath>
			<path class="st41" d="M76.1,59.8c-2.5,2.5-2.5,6.6,0,9.1c2.5,2.5,6.6,2.5,9.1,0c2.5-2.5,2.5-6.6,0-9.1
				C82.7,57.2,78.6,57.2,76.1,59.8"/>
		</g>
		<g>
			<defs>
				<rect id="SVGID_81_" width="107.3" height="131.1"/>
			</defs>
			<clipPath id="SVGID_82_">
				<use xlink:href="#SVGID_81_"  style="overflow:visible;"/>
			</clipPath>
			<path class="st42" d="M62,45.6c-2.5,2.5-2.5,6.6,0,9.1c2.5,2.5,6.6,2.5,9.1,0c2.5-2.5,2.5-6.6,0-9.1C68.6,43.1,64.5,43.1,62,45.6
				"/>
		</g>
	</g>
	<g>
		<polygon class="st9" points="53.6,53 29.8,76.8 77.5,76.8 		"/>
		<polygon class="st43" points="53.6,101.4 77.5,77.5 29.8,77.5 		"/>
	</g>
	<g>
		<g>
			<defs>
				<rect id="SVGID_83_" width="107.3" height="131.1"/>
			</defs>
			<clipPath id="SVGID_84_">
				<use xlink:href="#SVGID_83_"  style="overflow:visible;"/>
			</clipPath>
			<path class="st44" d="M107.3,0h-1.1H1.1H0v1.1v36.6v1c0,18-0.1,65.8,52.9,92l0.3,0.1l0.5,0.2l0.5-0.2l0.2-0.1
				c53-26.2,52.9-74,52.9-92c0-0.2,0-0.5,0-0.7v-0.3V1.1L107.3,0L107.3,0z M106.2,1.1v36.6c0,0.3,0,0.7,0,1c0,19.2-0.5,65.4-52.3,91
				l-0.2,0.1l-0.2-0.1C1.6,104.1,1.1,57.9,1.1,38.7v-1V1.1H106.2z"/>
		</g>
	</g>
</g>
</svg>
